<svg id="Layer_1" data-name="Layer 1" xmlns="http://www.w3.org/2000/svg" viewBox="0 0 512 512"><title>email</title><g id="post_stamp" data-name="post stamp"><g id="border_stamp" data-name="border stamp"><path d="M420.78,512a26.73,26.73,0,0,0-48.69,0H364.3a26.73,26.73,0,0,0-48.7,0H307.8a26.73,26.73,0,0,0-48.7,0H251.3a26.73,26.73,0,0,0-48.7,0h-7.79a26.73,26.73,0,0,0-48.7,0h-7.8a26.74,26.74,0,0,0-48.7,0H81.82a26.74,26.74,0,0,0-48.69,0H0V493a25.31,25.31,0,0,0,15-23.2,25.3,25.3,0,0,0-15-23.2v-6.94a25.31,25.31,0,0,0,15-23.2,25.27,25.27,0,0,0-15-23.2v-7a25.28,25.28,0,0,0,15-23.2A25.29,25.29,0,0,0,0,340v-7.6a25,25,0,0,0,15-22.81,25.06,25.06,0,0,0-15-23v-7.79a25,25,0,0,0,15-22.67A25.17,25.17,0,0,0,0,233.22v-7.78a25,25,0,0,0,15-22.81,25.09,25.09,0,0,0-15-23V172a25.28,25.28,0,0,0,15-23.18A25.3,25.3,0,0,0,0,125.65V118.7a25.26,25.26,0,0,0,15-23.2A25.29,25.29,0,0,0,0,72.31V65.37A25.28,25.28,0,0,0,15,42.18,25.3,25.3,0,0,0,0,19V0H33.13A26.48,26.48,0,0,0,57.47,15.69,26.46,26.46,0,0,0,81.82,0h7.79A26.47,26.47,0,0,0,114,15.69,26.49,26.49,0,0,0,138.31,0h7.8a26.47,26.47,0,0,0,24.35,15.69A26.46,26.46,0,0,0,194.81,0h7.79A26.49,26.49,0,0,0,227,15.69,26.45,26.45,0,0,0,251.3,0h7.81a26.47,26.47,0,0,0,24.35,15.69A26.48,26.48,0,0,0,307.8,0h7.81a26.45,26.45,0,0,0,24.34,15.69A26.46,26.46,0,0,0,364.3,0h7.79a26.49,26.49,0,0,0,24.36,15.69A26.45,26.45,0,0,0,420.78,0h7.81a26.44,26.44,0,0,0,24.34,15.69A26.5,26.5,0,0,0,477.29,0H512V19a25.46,25.46,0,0,0,0,46.4v6.94a25.46,25.46,0,0,0,0,46.39v6.95a25.46,25.46,0,0,0,0,46.4v7.6a25,25,0,0,0,0,45.8v7.78a24.84,24.84,0,0,0,0,45.56v7.79a25,25,0,0,0,0,45.78V340a25.45,25.45,0,0,0,0,46.39v7a25.46,25.46,0,0,0,0,46.4v6.94a25.46,25.46,0,0,0,0,46.4v19H477.28a26.74,26.74,0,0,0-48.69,0Z" fill="#c6b99b"/></g><path id="inner_color_stamp" data-name="inner color stamp" d="M481.3,505.34a33.5,33.5,0,0,0-56.61-.19,33.49,33.49,0,0,0-56.49,0,33.5,33.5,0,0,0-56.5,0,33.5,33.5,0,0,0-56.49,0,33.52,33.52,0,0,0-56.5,0,33.5,33.5,0,0,0-56.49,0,33.51,33.51,0,0,0-56.5,0,33.5,33.5,0,0,0-56.61.2H6.64V497a32.16,32.16,0,0,0,15-27.2A32.17,32.17,0,0,0,7.46,443.16a32.19,32.19,0,0,0,14.16-26.67A32.17,32.17,0,0,0,7.46,389.82a32.2,32.2,0,0,0,14.16-26.68A32.18,32.18,0,0,0,7,336.17a31.77,31.77,0,0,0,14.62-26.51v-.38a31.8,31.8,0,0,0-14.74-26.6,31.87,31.87,0,0,0,14.74-26.41v-.51A31.9,31.9,0,0,0,6.86,229.33a31.77,31.77,0,0,0,14.74-26.6v-.39A31.81,31.81,0,0,0,7,175.82a32.14,32.14,0,0,0,14.63-27A32.18,32.18,0,0,0,7.46,122.18,32.16,32.16,0,0,0,21.62,95.51,32.16,32.16,0,0,0,7.46,68.85,32.19,32.19,0,0,0,21.62,42.18,32.14,32.14,0,0,0,6.64,15V6.66H29.11A33.4,33.4,0,0,0,57.47,22.33,33.39,33.39,0,0,0,85.71,6.86,33.44,33.44,0,0,0,114,22.33,33.41,33.41,0,0,0,142.22,6.84a33.39,33.39,0,0,0,28.24,15.49A33.39,33.39,0,0,0,198.7,6.86,33.45,33.45,0,0,0,227,22.33,33.41,33.41,0,0,0,255.21,6.84a33.38,33.38,0,0,0,28.25,15.49A33.41,33.41,0,0,0,311.7,6.84a33.41,33.41,0,0,0,28.25,15.49A33.38,33.38,0,0,0,368.19,6.84a33.42,33.42,0,0,0,28.26,15.49A33.37,33.37,0,0,0,424.68,6.84a33.41,33.41,0,0,0,28.25,15.49A33.41,33.41,0,0,0,481.31,6.66h24V15a32.2,32.2,0,0,0-.82,53.87,32.21,32.21,0,0,0,0,53.34,32.2,32.2,0,0,0,.47,53.64,31.89,31.89,0,0,0-14.61,26.52v.4a31.83,31.83,0,0,0,14.74,26.59,31.89,31.89,0,0,0-14.73,26.41v.52a31.88,31.88,0,0,0,14.73,26.41,31.86,31.86,0,0,0-14.74,26.6v.38A31.85,31.85,0,0,0,505,336.17a32.21,32.21,0,0,0-.47,53.65,32.2,32.2,0,0,0,0,53.34,32.2,32.2,0,0,0,.82,53.87v8.31Z" fill="#f9ecce"/><g id="inner_color" data-name="inner color"><rect x="47.02" y="47.02" width="417.96" height="417.96" fill="#85bdb4"/></g><path id="inner_border" data-name="inner border" d="M466.29,466.29H45.71V45.71H466.29V466.29Zm-418-2.61H463.68V48.32H48.33V463.67Z" fill="#d9c7b2"/></g><path id="mail" d="M210.4,251.23,130.62,331V187.93ZM372,176H145.53l113.23,89.82ZM259.1,289.32l-.27.35-.08-.06-.16.12L258,289l-33.06-26.21-83.71,83.71H379.29l-85.05-85Zm49.7-39.41,83,83.06V184Z" fill="#f9ecce"/></svg>