<svg id="Layer_1" data-name="Layer 1" xmlns="http://www.w3.org/2000/svg" viewBox="0 0 512 512"><title>twitter</title><g id="post_stamp" data-name="post stamp"><g id="border_stamp" data-name="border stamp"><path d="M420.79,512a26.73,26.73,0,0,0-48.69,0h-7.8a26.73,26.73,0,0,0-48.69,0h-7.81a26.73,26.73,0,0,0-48.69,0h-7.8a26.74,26.74,0,0,0-48.7,0h-7.8a26.73,26.73,0,0,0-48.69,0h-7.79a26.74,26.74,0,0,0-48.71,0H81.82a26.73,26.73,0,0,0-48.68,0H0V493a25.31,25.31,0,0,0,15-23.2,25.3,25.3,0,0,0-15-23.2v-6.94a25.31,25.31,0,0,0,15-23.2A25.27,25.27,0,0,0,0,393.29v-7a25.28,25.28,0,0,0,15-23.2A25.29,25.29,0,0,0,0,340v-7.6a25,25,0,0,0,15-22.82,25.08,25.08,0,0,0-15-23v-7.78a25.05,25.05,0,0,0,15-22.67A25.15,25.15,0,0,0,0,233.23v-7.79a25,25,0,0,0,15-22.81,25.08,25.08,0,0,0-15-23V172a25.29,25.29,0,0,0,15-23.19A25.3,25.3,0,0,0,0,125.65v-6.94A25.27,25.27,0,0,0,15,95.52,25.29,25.29,0,0,0,0,72.32V65.37a25.29,25.29,0,0,0,15-23.2A25.31,25.31,0,0,0,0,19V0H33.13A26.48,26.48,0,0,0,57.47,15.69,26.45,26.45,0,0,0,81.82,0h7.79A26.47,26.47,0,0,0,114,15.69,26.49,26.49,0,0,0,138.32,0h7.79a26.46,26.46,0,0,0,24.35,15.69A26.43,26.43,0,0,0,194.8,0h7.8A26.47,26.47,0,0,0,227,15.69,26.47,26.47,0,0,0,251.3,0h7.8a26.44,26.44,0,0,0,24.35,15.69A26.44,26.44,0,0,0,307.79,0h7.81a26.45,26.45,0,0,0,24.34,15.69A26.45,26.45,0,0,0,364.29,0h7.8a26.47,26.47,0,0,0,24.35,15.69A26.45,26.45,0,0,0,420.79,0h7.81a26.42,26.42,0,0,0,24.33,15.69A26.44,26.44,0,0,0,477.28,0H512V19a25.46,25.46,0,0,0,0,46.4v6.94a25.45,25.45,0,0,0,0,46.39v6.94a25.46,25.46,0,0,0,0,46.4v7.6a25,25,0,0,0,0,45.78v7.79a25,25,0,0,0-15,22.66c.23,10.34,6.19,19.17,15,22.89v7.79a25,25,0,0,0,0,45.79V340a25.45,25.45,0,0,0,0,46.38v7a25.46,25.46,0,0,0,0,46.4v6.94a25.46,25.46,0,0,0,0,46.4v19H477.27a26.73,26.73,0,0,0-48.68,0Z" fill="#c6b99b"/></g><path id="inner_color_stamp" data-name="inner color stamp" d="M481.3,505.34a33.5,33.5,0,0,0-56.61-.19,33.5,33.5,0,0,0-56.49,0,33.5,33.5,0,0,0-56.5,0,33.49,33.49,0,0,0-56.48,0,33.52,33.52,0,0,0-56.51,0,33.5,33.5,0,0,0-56.49,0,33.5,33.5,0,0,0-56.49,0,33.5,33.5,0,0,0-56.61.2H6.65V497a32.17,32.17,0,0,0,15-27.2A32.17,32.17,0,0,0,7.46,443.16a32.19,32.19,0,0,0,14.17-26.67A32.17,32.17,0,0,0,7.46,389.82a32.19,32.19,0,0,0,14.17-26.68A32.17,32.17,0,0,0,7,336.17a31.79,31.79,0,0,0,14.62-26.52v-.38a31.79,31.79,0,0,0-14.74-26.6,31.89,31.89,0,0,0,14.74-26.42v-.51A31.88,31.88,0,0,0,6.87,229.34a31.82,31.82,0,0,0,14.74-26.6v-.38A31.8,31.8,0,0,0,7,175.83a32.16,32.16,0,0,0,14.63-27A32.17,32.17,0,0,0,7.46,122.19,32.15,32.15,0,0,0,21.63,95.52,32.16,32.16,0,0,0,7.46,68.85,32.19,32.19,0,0,0,21.63,42.18,32.14,32.14,0,0,0,6.65,15V6.67H29.11A33.38,33.38,0,0,0,57.47,22.34,33.39,33.39,0,0,0,85.72,6.86,33.43,33.43,0,0,0,114,22.34,33.39,33.39,0,0,0,142.21,6.85a33.41,33.41,0,0,0,28.25,15.49A33.39,33.39,0,0,0,198.7,6.86,33.47,33.47,0,0,0,227,22.34,33.4,33.4,0,0,0,255.21,6.85a33.36,33.36,0,0,0,28.24,15.49A33.38,33.38,0,0,0,311.69,6.85a33.41,33.41,0,0,0,28.25,15.49A33.39,33.39,0,0,0,368.19,6.85a33.41,33.41,0,0,0,28.26,15.49A33.39,33.39,0,0,0,424.68,6.85a33.39,33.39,0,0,0,28.24,15.49A33.39,33.39,0,0,0,481.3,6.67h24V15a32.19,32.19,0,0,0-.82,53.87,32.2,32.2,0,0,0,0,53.33,32.19,32.19,0,0,0,.48,53.64,31.84,31.84,0,0,0-14.62,26.52v.39a31.85,31.85,0,0,0,14.74,26.6,31.85,31.85,0,0,0-14.73,26.4v.52a31.89,31.89,0,0,0,14.73,26.42,31.82,31.82,0,0,0-14.74,26.6v.38A31.83,31.83,0,0,0,505,336.17a32.2,32.2,0,0,0-.48,53.65,32.2,32.2,0,0,0,0,53.33,32.19,32.19,0,0,0,.82,53.87v8.31Z" fill="#f9ecce"/><g id="inner_color" data-name="inner color"><rect x="47.02" y="47.02" width="417.96" height="417.96" fill="#5daec5"/></g><path id="inner_border" data-name="inner border" d="M466.29,466.28H45.72V45.72H466.29V466.28Zm-418-2.61H463.67V48.34H48.33V463.67Z" fill="#d9c7b2"/></g><path id="twitter" d="M384.75,172.77a106.9,106.9,0,0,1-30.69,8.77,53.71,53.71,0,0,0,23.24-29.91A107.33,107.33,0,0,1,343.42,165a53.64,53.64,0,0,0-90.8,49.85,152,152,0,0,1-111-54.82,53.63,53.63,0,0,0,17.35,71.37A53.16,53.16,0,0,1,134.57,225c0,.22,0,.47,0,.68a53.64,53.64,0,0,0,43.54,52.09,53.77,53.77,0,0,1-14.09,2,52.8,52.8,0,0,1-10.1-.85,53.64,53.64,0,0,0,50.45,36.68,107.4,107.4,0,0,1-66.31,23.65,109.27,109.27,0,0,1-12.79-.61,151.68,151.68,0,0,0,82.4,23.19c98.58-1,151.6-83.29,150.85-154.09,0-2.34-.12-4.65-.24-6.94A108.73,108.73,0,0,0,384.75,172.77Z" fill="#f9ecce"/></svg>